<mxfile host="app.diagrams.net" agent="Mozilla/5.0 (Windows NT 10.0; Win64; x64) AppleWebKit/537.36 (KHTML, like Gecko) Chrome/132.0.0.0 Safari/537.36" version="26.0.11">
  <diagram name="Page-1" id="oWWJ9WK90DHRocMrvL_G">
    <mxGraphModel dx="1395" dy="643" grid="1" gridSize="10" guides="1" tooltips="1" connect="1" arrows="1" fold="1" page="1" pageScale="1" pageWidth="827" pageHeight="1169" math="0" shadow="0">
      <root>
        <mxCell id="0" />
        <mxCell id="1" parent="0" />
        <mxCell id="Tsat0PEg5-iKXXruWEzb-1" value="Précision Use Case du Use Case global&lt;div&gt;Analyser les données archivées&amp;nbsp;&lt;/div&gt;" style="text;strokeColor=none;fillColor=none;html=1;fontSize=24;fontStyle=1;verticalAlign=middle;align=center;" vertex="1" parent="1">
          <mxGeometry x="110" y="10" width="530" height="60" as="geometry" />
        </mxCell>
        <mxCell id="Tsat0PEg5-iKXXruWEzb-2" value="&lt;b&gt;uc [Modèle] Analyser les données archivées [système traitement]&lt;/b&gt;" style="html=1;shape=mxgraph.sysml.package;overflow=fill;labelX=391;strokeWidth=2;align=left;" vertex="1" parent="1">
          <mxGeometry x="160" y="160" width="840" height="600" as="geometry" />
        </mxCell>
        <mxCell id="Tsat0PEg5-iKXXruWEzb-4" value="Demande de consultation des données" style="shape=ellipse;html=1;strokeWidth=3;fontStyle=1;whiteSpace=wrap;align=center;perimeter=ellipsePerimeter;" vertex="1" parent="1">
          <mxGeometry x="210" y="320" width="120" height="60" as="geometry" />
        </mxCell>
        <mxCell id="Tsat0PEg5-iKXXruWEzb-5" value="Analyser les données" style="shape=ellipse;html=1;strokeWidth=3;fontStyle=1;whiteSpace=wrap;align=center;perimeter=ellipsePerimeter;" vertex="1" parent="1">
          <mxGeometry x="420" y="320" width="120" height="60" as="geometry" />
        </mxCell>
        <mxCell id="Tsat0PEg5-iKXXruWEzb-7" value="BDD" style="shape=umlActor;verticalLabelPosition=bottom;verticalAlign=top;html=1;outlineConnect=0;" vertex="1" parent="1">
          <mxGeometry x="1030" y="320" width="30" height="60" as="geometry" />
        </mxCell>
        <mxCell id="Tsat0PEg5-iKXXruWEzb-8" value="Fournir les données archivées" style="shape=ellipse;html=1;strokeWidth=3;fontStyle=1;whiteSpace=wrap;align=center;perimeter=ellipsePerimeter;" vertex="1" parent="1">
          <mxGeometry x="820" y="320" width="120" height="60" as="geometry" />
        </mxCell>
        <mxCell id="Tsat0PEg5-iKXXruWEzb-10" value="&amp;lt;&amp;lt;include&amp;gt;&amp;gt;" style="edgeStyle=none;html=1;endArrow=open;verticalAlign=bottom;dashed=1;labelBackgroundColor=none;rounded=0;entryX=1;entryY=0.5;entryDx=0;entryDy=0;exitX=0;exitY=0.5;exitDx=0;exitDy=0;" edge="1" parent="1" source="Tsat0PEg5-iKXXruWEzb-5" target="Tsat0PEg5-iKXXruWEzb-4">
          <mxGeometry width="160" relative="1" as="geometry">
            <mxPoint x="540" y="480" as="sourcePoint" />
            <mxPoint x="700" y="480" as="targetPoint" />
          </mxGeometry>
        </mxCell>
      </root>
    </mxGraphModel>
  </diagram>
</mxfile>
